HIERARCHY
ROOT Hips
{
	OFFSET 0.00000 0.00000 0.00000
	CHANNELS 6 Xposition Yposition Zposition Zrotation Yrotation Xrotation 
	JOINT LHipJoint
	{
		OFFSET 0 0 0
		CHANNELS 3 Zrotation Yrotation Xrotation
		JOINT LeftHip
		{
			OFFSET 1.64549 -1.70879 0.84566
			CHANNELS 3 Zrotation Yrotation Xrotation
			JOINT LeftKnee
			{
				OFFSET 2.24963 -6.18082 0.00000
				CHANNELS 3 Zrotation Yrotation Xrotation
				JOINT LeftAnkle
				{
					OFFSET 2.71775 -7.46697 0.00000
					CHANNELS 3 Zrotation Yrotation Xrotation
					JOINT LeftToe
					{
						OFFSET 0.18768 -0.51564 2.24737
						CHANNELS 3 Zrotation Yrotation Xrotation
						End Site
						{
							OFFSET 0.00000 -0.00000 1.15935
						}
					}
				}
			}
		}
	}
	JOINT RHipJoint
	{
		OFFSET 0 0 0
		CHANNELS 3 Zrotation Yrotation Xrotation
		JOINT RightHip
		{
			OFFSET -1.58830 -1.70879 0.84566
			CHANNELS 3 Zrotation Yrotation Xrotation
			JOINT RightKnee
			{
				OFFSET -2.25006 -6.18201 0.00000
				CHANNELS 3 Zrotation Yrotation Xrotation
				JOINT RightAnkle
				{
					OFFSET -2.72829 -7.49593 0.00000
					CHANNELS 3 Zrotation Yrotation Xrotation
					JOINT RightToe
					{
						OFFSET -0.21541 -0.59185 2.10643
						CHANNELS 3 Zrotation Yrotation Xrotation
						End Site
						{
							OFFSET -0.00000 -0.00000 1.09838
						}
					}
				}
			}
		}
	}
	JOINT lowerback
	{
		OFFSET 0 0 0
		CHANNELS 3 Zrotation Yrotation Xrotation
		JOINT Chest
		{
			OFFSET 0.03142 2.10496 -0.11038
			CHANNELS 3 Zrotation Yrotation Xrotation
			JOINT Chest2
			{
				OFFSET -0.01863 2.10897 -0.06956
				CHANNELS 3 Zrotation Yrotation Xrotation
				JOINT lowerneck
				{
					OFFSET 0 0 0
					CHANNELS 3 Zrotation Yrotation Xrotation
					JOINT Neck
					{
						OFFSET -0.02267 1.73238 0.00451
						CHANNELS 3 Zrotation Yrotation Xrotation
						JOINT Head
						{
							OFFSET -0.05808 1.54724 -0.61749
							CHANNELS 3 Zrotation Yrotation Xrotation
							End Site
							{
								OFFSET -0.01396 1.71468 -0.21082
							}
						}
					}
				}
				JOINT LeftCollar
				{
					OFFSET 0 0 0
					CHANNELS 3 Zrotation Yrotation Xrotation
					JOINT LeftShoulder
					{
						OFFSET 3.44898 0.50298 0.21920
CHANNELS 3 Zrotation Xrotation Yrotation
						JOINT LeftElbow
						{
OFFSET 0 -5.419170 -0.000000
CHANNELS 3 Zrotation Xrotation Yrotation
							JOINT LeftWrist
							{
OFFSET 0 -2.443730 0.000000
CHANNELS 3 Zrotation Xrotation Yrotation
								JOINT lhand
								{
									OFFSET 0 0 0
CHANNELS 3 Zrotation Xrotation Yrotation
									JOINT LFingers
									{
OFFSET 0 -0.727500 0.000000
CHANNELS 3 Zrotation Xrotation Yrotation
										End Site
										{
OFFSET 0 -0.586530 0.000000
										}
									}
								}
								JOINT LThumb
								{
OFFSET 0 0.000000 0.000000
CHANNELS 3 Zrotation Xrotation Yrotation
									End Site
									{
OFFSET 0 -0.595490 0.595490
									}
								}
							}
						}
					}
				}
				JOINT RightCollar
				{
					OFFSET 0 0 0
					CHANNELS 3 Zrotation Yrotation Xrotation
					JOINT RightShoulder
					{
						OFFSET -3.23015 0.55830 0.31051
CHANNELS 3 Zrotation Xrotation Yrotation
						JOINT RightElbow
						{
OFFSET 0 -5.589760 0.000140
CHANNELS 3 Zrotation Xrotation Yrotation
							JOINT RightWrist
							{
OFFSET 0 -2.480600 0.000000
CHANNELS 3 Zrotation Xrotation Yrotation
								JOINT rhand
								{
									OFFSET 0 0 0
CHANNELS 3 Zrotation Xrotation Yrotation
									JOINT RFingers
									{
OFFSET 0 -0.816010 0.000000
CHANNELS 3 Zrotation Xrotation Yrotation
										End Site
										{
OFFSET 0 -0.657890 0.000000
										}
									}
								}
								JOINT RThumb
								{
OFFSET 0 0.000000 0.000000
CHANNELS 3 Zrotation Xrotation Yrotation
									End Site
									{
OFFSET 0 -0.667930 0.667930
									}
								}
							}
						}
					}
				}
			}
		}
	}
}
MOTION
Frames: 8
Frame Time: 0.008333333333333333
0.146674 16.947016 17.312473 -177.075234 -29.025773 -159.234871 0.000000 0.000000 0.000000 -24.526028 21.054678 -35.315772 8.365856 16.381854 53.870063 -4.982927 44.969921 12.428944 2.707449 10.162924 29.545100 0.000000 0.000000 0.000000 32.324758 14.386302 -28.578096 -2.124198 -9.120097 26.171780 -3.839283 -16.991098 -45.486850 -4.562442 -12.872915 38.895548 2.295443 2.342274 -11.861112 1.433036 1.807313 -9.938922 0.393276 0.331973 -3.753068 -3.253497 -0.044874 -13.446416 -2.490013 -0.152777 31.235844 -0.559078 -1.442097 12.602047 0.000000 0.000000 0.000000 14.791827 30.834791 -58.811260 24.448104 -35.634495 7.966128 -27.938877 -19.943608 -17.402077 0.000000 0.000000 0.000000 -7.125000 0.000000 0.000000 -47.322279 42.005071 -4.738646 0.000000 0.000000 0.000000 -20.177157 26.152914 77.668223 -21.532676 -32.444739 -6.333291 21.280247 -38.251563 -2.730806 0.000000 0.000000 0.000000 7.125000 0.000000 0.000000 34.216651 25.841824 19.418594
0.137787 16.956819 17.315774 -177.388137 -29.606639 -159.090559 0.000000 0.000000 0.000000 -24.635143 20.654039 -34.914652 8.325339 16.353378 53.726104 -4.546852 45.084073 14.620851 1.573751 7.915153 22.456761 0.000000 0.000000 0.000000 32.237439 13.370969 -28.892590 -2.122332 -9.116363 26.160022 -3.829823 -16.715960 -45.271616 -4.470992 -12.762101 38.484297 2.330561 2.049371 -11.708883 1.290959 1.395600 -10.186581 0.190081 0.101570 -4.100299 -2.926573 0.147140 -13.071256 -2.368006 -0.079386 31.472762 -0.564228 -1.382459 12.616514 0.000000 0.000000 0.000000 15.042487 31.641217 -58.785792 25.038041 -36.242736 8.312464 -27.735595 -19.766533 -17.178966 0.000000 0.000000 0.000000 -7.125000 0.000000 0.000000 -47.053126 41.859209 -4.927566 0.000000 0.000000 0.000000 -20.224698 26.571581 78.329167 -21.704587 -32.641545 -6.425802 20.605840 -37.439042 -3.340956 0.000000 0.000000 0.000000 7.125000 0.000000 0.000000 33.643084 25.375083 19.408223
0.131100 16.950618 17.311864 -177.277347 -29.206054 -159.906194 0.000000 0.000000 0.000000 -24.464467 21.665815 -34.078766 8.266936 16.312071 53.518482 -4.700175 45.433647 14.418371 1.183277 6.853539 19.303286 0.000000 0.000000 0.000000 32.451938 13.120710 -28.007083 -2.135134 -9.142082 26.240816 -3.850596 -16.450919 -45.182929 -4.532526 -12.837173 38.762075 2.263085 2.193630 -11.305333 1.318058 1.675861 -9.827540 0.268680 0.283658 -3.931546 -3.246102 0.035858 -13.385984 -1.912766 -0.311654 31.902202 -0.379641 -1.481921 12.863383 0.000000 0.000000 0.000000 14.988741 31.378002 -58.711572 25.110129 -36.316367 8.355096 -27.765321 -19.695096 -17.251899 0.000000 0.000000 0.000000 -7.125000 0.000000 0.000000 -47.118429 41.912453 -4.852795 0.000000 0.000000 0.000000 -20.365079 26.455659 78.775902 -21.978487 -32.952635 -6.574106 19.437320 -37.210554 -3.991413 0.000000 0.000000 0.000000 7.125000 0.000000 0.000000 32.770017 24.916887 19.120658
0.143868 16.943057 17.318453 -177.446073 -28.831594 -159.401172 0.000000 0.000000 0.000000 -25.079776 21.726342 -34.805844 8.277980 16.319969 53.557964 -5.116946 44.896383 11.667074 2.134726 9.135639 26.224612 0.000000 0.000000 0.000000 31.740390 15.480449 -27.806482 -2.139389 -9.150538 26.267382 -4.100577 -17.312052 -46.728068 -4.706442 -13.044640 39.536995 1.670516 2.299550 -11.853376 1.379836 1.824137 -9.831314 0.687974 0.384875 -3.660863 -3.464638 -0.006785 -13.580437 -1.666583 -0.396792 32.135250 -0.265339 -1.522467 13.004434 0.000000 0.000000 0.000000 14.908699 31.279818 -58.833583 25.520212 -36.730915 8.599111 -27.644593 -20.352838 -18.239401 0.000000 0.000000 0.000000 -7.125000 0.000000 0.000000 -47.686972 42.711451 -3.643083 0.000000 0.000000 0.000000 -20.687177 26.389075 78.882354 -22.456381 -33.488304 -6.836214 19.203270 -36.806344 -4.432779 0.000000 0.000000 0.000000 7.125000 0.000000 0.000000 32.508041 24.546348 19.253660
0.130304 16.940299 17.323762 -176.845821 -29.244464 -159.920272 0.000000 0.000000 0.000000 -24.376476 21.728481 -34.463686 8.321187 16.350467 53.711469 -5.313118 45.183611 11.180775 2.101107 9.071933 26.021702 0.000000 0.000000 0.000000 32.458700 14.890304 -27.575784 -2.111260 -9.094119 26.090098 -4.091976 -17.152796 -46.594256 -4.763927 -13.112898 39.792584 2.356136 2.323910 -11.851585 1.515559 1.816012 -9.690361 0.445276 0.358073 -3.491460 -3.158249 -0.007839 -13.485609 -1.759033 -0.475387 32.212005 -0.367758 -1.538344 13.014935 0.000000 0.000000 0.000000 14.934604 31.064838 -58.907876 25.557066 -36.767933 8.621160 -28.091564 -20.900895 -18.883412 0.000000 0.000000 0.000000 -7.125000 0.000000 0.000000 -48.400854 43.146880 -3.011363 0.000000 0.000000 0.000000 -21.298148 26.298229 80.331857 -23.482983 -34.611764 -7.411219 17.182141 -37.663234 -4.379276 0.000000 0.000000 0.000000 7.125000 0.000000 0.000000 31.306033 24.772857 18.054450
0.111053 16.939092 17.337186 -176.824716 -29.502621 -160.069907 0.000000 0.000000 0.000000 -24.384354 21.585040 -34.247355 8.336600 16.361331 53.766254 -5.130393 44.749959 11.369059 1.849534 8.543695 24.379125 0.000000 0.000000 0.000000 32.681642 13.671563 -27.778224 -2.096362 -9.063925 25.995451 -3.979854 -16.672248 -45.844722 -4.779331 -13.130963 39.860571 2.608887 2.290227 -11.893973 1.523029 1.771496 -9.518082 0.308381 0.337529 -3.276734 -3.204441 -0.010401 -13.552401 -1.695474 -0.487518 32.285960 -0.338787 -1.542855 13.060934 0.000000 0.000000 0.000000 14.890327 30.860856 -58.820035 25.688901 -36.899901 8.700167 -28.503905 -21.487484 -19.453087 0.000000 0.000000 0.000000 -7.125000 0.000000 0.000000 -49.050099 43.526576 -2.443234 0.000000 0.000000 0.000000 -21.750386 25.728440 80.095010 -24.718467 -35.914447 -8.124421 21.233894 -40.855712 -0.287602 0.000000 0.000000 0.000000 7.125000 0.000000 0.000000 34.963346 27.998360 17.728187
0.095383 16.938036 17.364718 -176.970588 -29.881546 -159.729758 0.000000 0.000000 0.000000 -24.686191 20.910223 -34.488098 8.356913 16.375557 53.838233 -6.132355 45.863157 8.298854 2.164452 9.196018 26.413845 0.000000 0.000000 0.000000 32.666743 12.844109 -28.509944 -2.102180 -9.075742 26.032536 -3.789669 -16.842846 -45.192493 -4.542624 -12.849371 38.807319 2.653342 2.094021 -12.140485 1.670293 1.501164 -9.410096 0.416656 0.209631 -3.035172 -3.623521 0.020684 -14.076582 -1.510385 -0.330199 32.392771 -0.174345 -1.494501 13.221118 0.000000 0.000000 0.000000 14.293443 30.548988 -58.270928 25.594216 -36.805216 8.643422 -28.306097 -21.262173 -19.230813 0.000000 0.000000 0.000000 -7.125000 0.000000 0.000000 -48.772279 43.384651 -2.655605 0.000000 0.000000 0.000000 -22.711168 25.279506 81.731583 -25.926386 -37.135485 -8.843386 20.655143 -40.508076 0.038784 0.000000 0.000000 0.000000 7.125000 0.000000 0.000000 34.722008 28.353651 17.184116
0.093420 16.930051 17.360373 -176.273382 -29.736975 -160.379073 0.000000 0.000000 0.000000 -24.061583 21.623969 -34.423539 8.415256 16.416342 54.044926 -6.582212 46.026870 6.289141 2.395618 9.645002 27.835056 0.000000 0.000000 0.000000 33.184692 13.256816 -27.864668 -2.074783 -9.020089 25.858174 -3.950788 -16.482524 -45.607138 -4.767458 -13.116693 39.807447 3.166285 2.137908 -11.876149 1.918582 1.551612 -9.200128 0.388080 0.231769 -2.946847 -3.541305 0.104167 -14.375110 -1.562144 -0.177915 32.427573 -0.187146 -1.419548 13.298914 0.000000 0.000000 0.000000 14.009774 30.459224 -57.857922 25.640107 -36.851107 8.670944 -28.441410 -21.660491 -19.460226 0.000000 0.000000 0.000000 -7.125000 0.000000 0.000000 -49.015988 43.541832 -2.414274 0.000000 0.000000 0.000000 -23.413782 24.570359 83.003172 -26.761545 -37.950234 -9.352381 20.481054 -40.324372 0.402903 0.000000 0.000000 0.000000 7.125000 0.000000 0.000000 34.737247 28.692154 16.835118
